# xmcd
#
# Track frame offsets:
#	150
#	7749
#	28850
#	46124
#	70190
#	102448
#	119634
#	149686
#	173779
#	199998
#	231140
#
# Disc length: 3375 seconds
#
# Revision: 0
# Processed by: cddbd v1.5.1PL2 Copyright (c) Steve Scherf et al.
# Submitted via: EasyCDDAExtractor 8.0.2.1
#
DISCID=990d2d0b
DTITLE=Saxon - Convention Hall Ashbury Park 05-04-02
DYEAR=2002
DGENRE=Hard Rock
TTITLE0=Intro
TTITLE1=Killing Ground
TTITLE2=20 000 Feet
TTITLE3=The Preacher
TTITLE4=Power And The Glory
TTITLE5=Dragon lair
TTITLE6=Broken Heroes
TTITLE7=Princess Of The Night
TTITLE8=Denim and Leather
TTITLE9=Crusader
TTITLE10=Wheels Of Steel
EXTD=
EXTT0=
EXTT1=
EXTT2=
EXTT3=
EXTT4=
EXTT5=
EXTT6=
EXTT7=
EXTT8=
EXTT9=
EXTT10=
PLAYORDER=
